<mxfile host="app.diagrams.net" modified="2022-06-01T09:35:09.553Z" agent="5.0 (Windows NT 10.0; Win64; x64) AppleWebKit/537.36 (KHTML, like Gecko) Chrome/102.0.5005.63 Safari/537.36" etag="NDt8J-RSe9KgQg_AMDha" version="18.2.0" type="github">
  <diagram name="Page-1" id="2a216829-ef6e-dabb-86c1-c78162f3ba2b">
    <mxGraphModel dx="1271" dy="804" grid="1" gridSize="10" guides="1" tooltips="1" connect="1" arrows="1" fold="1" page="1" pageScale="1" pageWidth="850" pageHeight="1100" background="none" math="0" shadow="0">
      <root>
        <mxCell id="0" />
        <mxCell id="1" parent="0" />
        <mxCell id="7a84cebc1def654-1" value="" style="shape=mxgraph.bpmn.shape;html=1;verticalLabelPosition=bottom;labelBackgroundColor=#ffffff;verticalAlign=top;perimeter=ellipsePerimeter;outline=standard;symbol=general;" parent="1" vertex="1">
          <mxGeometry x="30" y="662.5" width="50" height="50" as="geometry" />
        </mxCell>
        <mxCell id="7a84cebc1def654-36" style="edgeStyle=orthogonalEdgeStyle;rounded=0;html=1;jettySize=auto;orthogonalLoop=1;" parent="1" source="7a84cebc1def654-1" target="i5kf0hHbGpjQ4A4t9b65-1" edge="1">
          <mxGeometry relative="1" as="geometry">
            <mxPoint x="130" y="665" as="targetPoint" />
          </mxGeometry>
        </mxCell>
        <mxCell id="i5kf0hHbGpjQ4A4t9b65-36" value="" style="edgeStyle=orthogonalEdgeStyle;rounded=0;orthogonalLoop=1;jettySize=auto;html=1;" edge="1" parent="1" source="i5kf0hHbGpjQ4A4t9b65-1" target="i5kf0hHbGpjQ4A4t9b65-35">
          <mxGeometry relative="1" as="geometry" />
        </mxCell>
        <mxCell id="i5kf0hHbGpjQ4A4t9b65-1" value="&lt;span style=&quot;&quot;&gt;Check&amp;nbsp;&lt;/span&gt;&lt;span style=&quot;font-size: 14px; background-color: rgb(255, 255, 255); color: rgb(95, 99, 104); font-family: Roboto, RobotoDraft, Helvetica, Arial, sans-serif; text-align: start;&quot;&gt;operator&lt;br&gt;&lt;/span&gt;&lt;span style=&quot;&quot;&gt;new employee or&amp;nbsp;&lt;/span&gt;&lt;span style=&quot;&quot;&gt;No&amp;nbsp;Attendance&amp;nbsp;&lt;/span&gt;&lt;span style=&quot;font-size: 14px; background-color: rgb(255, 255, 255); color: rgb(95, 99, 104); font-family: Roboto, RobotoDraft, Helvetica, Arial, sans-serif; text-align: start;&quot;&gt;&lt;br&gt;&lt;/span&gt;" style="rhombus;whiteSpace=wrap;html=1;rounded=1;" vertex="1" parent="1">
          <mxGeometry x="130" y="625" width="160" height="125" as="geometry" />
        </mxCell>
        <mxCell id="i5kf0hHbGpjQ4A4t9b65-20" value="" style="edgeStyle=orthogonalEdgeStyle;rounded=0;orthogonalLoop=1;jettySize=auto;html=1;exitX=0.5;exitY=0;exitDx=0;exitDy=0;" edge="1" parent="1" source="i5kf0hHbGpjQ4A4t9b65-1" target="i5kf0hHbGpjQ4A4t9b65-19">
          <mxGeometry relative="1" as="geometry" />
        </mxCell>
        <mxCell id="i5kf0hHbGpjQ4A4t9b65-10" value="YES" style="text;html=1;resizable=0;autosize=1;align=center;verticalAlign=middle;points=[];fillColor=none;strokeColor=none;rounded=0;" vertex="1" parent="1">
          <mxGeometry x="170" y="560" width="40" height="20" as="geometry" />
        </mxCell>
        <mxCell id="i5kf0hHbGpjQ4A4t9b65-22" value="" style="edgeStyle=orthogonalEdgeStyle;rounded=0;orthogonalLoop=1;jettySize=auto;html=1;entryX=0;entryY=0.5;entryDx=0;entryDy=0;" edge="1" parent="1" source="i5kf0hHbGpjQ4A4t9b65-19" target="i5kf0hHbGpjQ4A4t9b65-23">
          <mxGeometry relative="1" as="geometry">
            <mxPoint x="350" y="440" as="targetPoint" />
          </mxGeometry>
        </mxCell>
        <mxCell id="i5kf0hHbGpjQ4A4t9b65-19" value="Alarm display red color" style="shape=document;whiteSpace=wrap;html=1;boundedLbl=1;" vertex="1" parent="1">
          <mxGeometry x="150" y="400" width="120" height="80" as="geometry" />
        </mxCell>
        <mxCell id="i5kf0hHbGpjQ4A4t9b65-26" value="" style="edgeStyle=orthogonalEdgeStyle;rounded=0;orthogonalLoop=1;jettySize=auto;html=1;" edge="1" parent="1" source="i5kf0hHbGpjQ4A4t9b65-23" target="i5kf0hHbGpjQ4A4t9b65-25">
          <mxGeometry relative="1" as="geometry" />
        </mxCell>
        <mxCell id="i5kf0hHbGpjQ4A4t9b65-23" value="No&amp;nbsp;Attendance" style="rhombus;whiteSpace=wrap;html=1;" vertex="1" parent="1">
          <mxGeometry x="370" y="400" width="150" height="80" as="geometry" />
        </mxCell>
        <mxCell id="i5kf0hHbGpjQ4A4t9b65-32" value="" style="edgeStyle=orthogonalEdgeStyle;rounded=0;orthogonalLoop=1;jettySize=auto;html=1;" edge="1" parent="1" source="i5kf0hHbGpjQ4A4t9b65-25" target="i5kf0hHbGpjQ4A4t9b65-31">
          <mxGeometry relative="1" as="geometry" />
        </mxCell>
        <mxCell id="i5kf0hHbGpjQ4A4t9b65-25" value="&lt;ul style=&quot;-webkit-tap-highlight-color: transparent; border: 0px; margin: 4px 8px 4px 12px; padding: 0px; list-style: none; direction: ltr; color: rgb(95, 99, 104); font-family: Roboto, RobotoDraft, Helvetica, Arial, sans-serif; text-align: start; background-color: rgb(255, 255, 255);&quot; class=&quot;FgtVoc OvhKBb&quot; role=&quot;list&quot;&gt;&lt;span style=&quot;font-size: 14px;&quot;&gt;Change Point&lt;/span&gt;&lt;/ul&gt;" style="whiteSpace=wrap;html=1;" vertex="1" parent="1">
          <mxGeometry x="385" y="250" width="120" height="60" as="geometry" />
        </mxCell>
        <mxCell id="i5kf0hHbGpjQ4A4t9b65-29" value="YES" style="text;html=1;resizable=0;autosize=1;align=center;verticalAlign=middle;points=[];fillColor=none;strokeColor=none;rounded=0;" vertex="1" parent="1">
          <mxGeometry x="400" y="360" width="40" height="20" as="geometry" />
        </mxCell>
        <mxCell id="i5kf0hHbGpjQ4A4t9b65-34" value="" style="edgeStyle=orthogonalEdgeStyle;rounded=0;orthogonalLoop=1;jettySize=auto;html=1;" edge="1" parent="1" source="i5kf0hHbGpjQ4A4t9b65-31" target="i5kf0hHbGpjQ4A4t9b65-33">
          <mxGeometry relative="1" as="geometry" />
        </mxCell>
        <mxCell id="i5kf0hHbGpjQ4A4t9b65-31" value="PRQA Audit" style="whiteSpace=wrap;html=1;" vertex="1" parent="1">
          <mxGeometry x="585" y="250" width="120" height="60" as="geometry" />
        </mxCell>
        <mxCell id="i5kf0hHbGpjQ4A4t9b65-40" value="" style="edgeStyle=orthogonalEdgeStyle;rounded=0;orthogonalLoop=1;jettySize=auto;html=1;" edge="1" parent="1" source="i5kf0hHbGpjQ4A4t9b65-33" target="i5kf0hHbGpjQ4A4t9b65-39">
          <mxGeometry relative="1" as="geometry" />
        </mxCell>
        <mxCell id="i5kf0hHbGpjQ4A4t9b65-42" value="" style="edgeStyle=orthogonalEdgeStyle;rounded=0;orthogonalLoop=1;jettySize=auto;html=1;" edge="1" parent="1" source="i5kf0hHbGpjQ4A4t9b65-33" target="i5kf0hHbGpjQ4A4t9b65-41">
          <mxGeometry relative="1" as="geometry" />
        </mxCell>
        <mxCell id="i5kf0hHbGpjQ4A4t9b65-33" value="Check" style="rhombus;whiteSpace=wrap;html=1;" vertex="1" parent="1">
          <mxGeometry x="805" y="240" width="80" height="80" as="geometry" />
        </mxCell>
        <mxCell id="i5kf0hHbGpjQ4A4t9b65-35" value="End" style="ellipse;whiteSpace=wrap;html=1;rounded=1;" vertex="1" parent="1">
          <mxGeometry x="150" y="862.5" width="120" height="60" as="geometry" />
        </mxCell>
        <mxCell id="i5kf0hHbGpjQ4A4t9b65-55" style="edgeStyle=orthogonalEdgeStyle;rounded=0;orthogonalLoop=1;jettySize=auto;html=1;entryX=0;entryY=0.5;entryDx=0;entryDy=0;exitX=0.5;exitY=1;exitDx=0;exitDy=0;" edge="1" parent="1" source="i5kf0hHbGpjQ4A4t9b65-23" target="i5kf0hHbGpjQ4A4t9b65-46">
          <mxGeometry relative="1" as="geometry">
            <mxPoint x="445" y="629.9999999999998" as="sourcePoint" />
          </mxGeometry>
        </mxCell>
        <mxCell id="i5kf0hHbGpjQ4A4t9b65-39" value="End" style="ellipse;whiteSpace=wrap;html=1;" vertex="1" parent="1">
          <mxGeometry x="785" y="90" width="120" height="60" as="geometry" />
        </mxCell>
        <mxCell id="i5kf0hHbGpjQ4A4t9b65-41" value="Comment" style="shape=document;whiteSpace=wrap;html=1;boundedLbl=1;" vertex="1" parent="1">
          <mxGeometry x="785" y="400" width="120" height="80" as="geometry" />
        </mxCell>
        <mxCell id="i5kf0hHbGpjQ4A4t9b65-43" value="OK" style="text;html=1;resizable=0;autosize=1;align=center;verticalAlign=middle;points=[];fillColor=none;strokeColor=none;rounded=0;" vertex="1" parent="1">
          <mxGeometry x="805" y="210" width="30" height="20" as="geometry" />
        </mxCell>
        <mxCell id="i5kf0hHbGpjQ4A4t9b65-44" value="NG" style="text;html=1;resizable=0;autosize=1;align=center;verticalAlign=middle;points=[];fillColor=none;strokeColor=none;rounded=0;" vertex="1" parent="1">
          <mxGeometry x="805" y="340" width="30" height="20" as="geometry" />
        </mxCell>
        <mxCell id="i5kf0hHbGpjQ4A4t9b65-45" value="" style="edgeStyle=orthogonalEdgeStyle;rounded=0;orthogonalLoop=1;jettySize=auto;html=1;" edge="1" parent="1" source="i5kf0hHbGpjQ4A4t9b65-46" target="i5kf0hHbGpjQ4A4t9b65-49">
          <mxGeometry relative="1" as="geometry" />
        </mxCell>
        <mxCell id="i5kf0hHbGpjQ4A4t9b65-46" value="PRQA Audit" style="whiteSpace=wrap;html=1;" vertex="1" parent="1">
          <mxGeometry x="585" y="720" width="120" height="60" as="geometry" />
        </mxCell>
        <mxCell id="i5kf0hHbGpjQ4A4t9b65-47" value="" style="edgeStyle=orthogonalEdgeStyle;rounded=0;orthogonalLoop=1;jettySize=auto;html=1;" edge="1" parent="1" source="i5kf0hHbGpjQ4A4t9b65-49" target="i5kf0hHbGpjQ4A4t9b65-50">
          <mxGeometry relative="1" as="geometry" />
        </mxCell>
        <mxCell id="i5kf0hHbGpjQ4A4t9b65-48" value="" style="edgeStyle=orthogonalEdgeStyle;rounded=0;orthogonalLoop=1;jettySize=auto;html=1;" edge="1" parent="1" source="i5kf0hHbGpjQ4A4t9b65-49" target="i5kf0hHbGpjQ4A4t9b65-51">
          <mxGeometry relative="1" as="geometry" />
        </mxCell>
        <mxCell id="i5kf0hHbGpjQ4A4t9b65-49" value="Check" style="rhombus;whiteSpace=wrap;html=1;" vertex="1" parent="1">
          <mxGeometry x="805" y="710" width="80" height="80" as="geometry" />
        </mxCell>
        <mxCell id="i5kf0hHbGpjQ4A4t9b65-50" value="End" style="ellipse;whiteSpace=wrap;html=1;" vertex="1" parent="1">
          <mxGeometry x="785" y="560" width="120" height="60" as="geometry" />
        </mxCell>
        <mxCell id="i5kf0hHbGpjQ4A4t9b65-51" value="Comment" style="shape=document;whiteSpace=wrap;html=1;boundedLbl=1;" vertex="1" parent="1">
          <mxGeometry x="785" y="870" width="120" height="80" as="geometry" />
        </mxCell>
        <mxCell id="i5kf0hHbGpjQ4A4t9b65-52" value="OK" style="text;html=1;resizable=0;autosize=1;align=center;verticalAlign=middle;points=[];fillColor=none;strokeColor=none;rounded=0;" vertex="1" parent="1">
          <mxGeometry x="805" y="680" width="30" height="20" as="geometry" />
        </mxCell>
        <mxCell id="i5kf0hHbGpjQ4A4t9b65-53" value="NG" style="text;html=1;resizable=0;autosize=1;align=center;verticalAlign=middle;points=[];fillColor=none;strokeColor=none;rounded=0;" vertex="1" parent="1">
          <mxGeometry x="805" y="810" width="30" height="20" as="geometry" />
        </mxCell>
        <mxCell id="i5kf0hHbGpjQ4A4t9b65-56" value="YES" style="text;html=1;resizable=0;autosize=1;align=center;verticalAlign=middle;points=[];fillColor=none;strokeColor=none;rounded=0;" vertex="1" parent="1">
          <mxGeometry x="400" y="560" width="40" height="20" as="geometry" />
        </mxCell>
      </root>
    </mxGraphModel>
  </diagram>
</mxfile>
